<svg width="225" height="323" viewBox="0 0 225 323" fill="none" xmlns="http://www.w3.org/2000/svg">
<rect x="16.9521" width="208.001" height="311.999" rx="16" transform="rotate(3 16.9521 0)" fill="#FCE5BC"/>
<rect x="32.0928" y="16.8154" width="48" height="47.9992" rx="8" transform="rotate(3 32.0928 16.8154)" fill="white"/>
<g clip-path="url(#clip0_1137_27338)">
<path d="M61.3605 44.5667L61.136 48.8508C59.4543 49.9243 57.4731 50.431 55.4826 50.2969C54.9398 50.2691 54.4008 50.1905 53.8726 50.0623L50.1963 52.7636C51.7489 53.4869 53.4285 53.8981 55.1397 53.974C58.6785 54.1582 62.1645 53.0571 64.9554 50.8735L65.4431 41.5662L61.3605 44.5667Z" fill="#385353"/>
<path d="M48.0766 41.6261L48.0798 41.5662C48.3111 37.1523 51.7313 33.6064 55.9755 33.8288C57.1697 33.8527 58.3472 34.1141 59.4393 34.5977C60.5315 35.0813 61.5164 35.7775 62.3368 36.6456L65.0345 33.7028C62.7179 31.4136 59.5977 30.1215 56.341 30.1028C53.2262 29.9049 50.1602 30.9511 47.8161 33.0117C45.472 35.0724 44.0415 37.9791 43.8387 41.0936L43.8188 41.4731C43.6127 43.7833 44.1169 46.1014 45.2639 48.1174C46.4108 50.1334 48.1459 51.7512 50.2372 52.7544L53.9135 50.0531C50.1055 49.1526 47.8558 45.8403 48.0766 41.6261Z" fill="#062828"/>
<path d="M65.4718 41.1968L55.6553 40.6824L55.4705 44.2075L61.3624 44.5163L61.3598 44.5662L65.4524 41.5663L65.4718 41.1968Z" fill="#062828"/>
</g>
<path d="M37.0665 129.509C41.037 129.717 44.0844 127.746 45.5553 124.29L44.1306 123.655C42.9142 126.535 40.4171 128.171 37.2016 128.002C32.7277 127.768 29.6688 124.075 29.9311 119.07C30.1949 114.037 33.6245 110.655 37.9026 110.88C41.0064 111.042 43.2407 112.814 44.1847 115.667L45.668 115.184C44.5591 111.733 41.8125 109.57 38.0097 109.371C32.697 109.093 28.4493 113.104 28.1415 118.976C27.8294 124.932 31.5301 129.219 37.0665 129.509ZM58.1902 122.177C57.9587 126.595 55.9769 129.098 53.041 128.945C50.7481 128.824 49.488 127.188 49.6214 124.644L50.0801 115.892L48.4024 115.804L47.9378 124.668C47.762 128.023 49.6682 130.17 52.772 130.332C55.0648 130.453 56.8306 129.396 57.9162 127.406L57.7638 130.314L59.4415 130.402L60.1742 116.421L58.4965 116.333L58.1902 122.177ZM67.7273 131.116C71.0268 131.289 73.0735 129.686 73.201 127.253C73.349 124.429 71.3473 123.567 69.2384 123.148L67.3516 122.769C65.8814 122.468 64.7643 121.848 64.8463 120.283C64.9152 118.968 66.1806 117.829 68.2777 117.939C70.0393 118.031 71.2227 118.991 71.6763 120.5L73.0699 120.125C72.5617 118.051 70.8381 116.699 68.4334 116.573C65.3856 116.413 63.3639 118.074 63.2496 120.255C63.103 123.051 64.934 123.96 66.9326 124.345L69.0415 124.764C70.5397 125.067 71.6833 125.716 71.6028 127.254C71.5222 128.792 70.0655 129.837 67.8006 129.718C65.5916 129.602 64.1432 128.349 63.6822 126.446L62.3431 126.853C62.8543 129.403 64.9032 130.968 67.7273 131.116ZM81.6574 129.547C81.2087 130.084 80.6599 130.392 79.9049 130.352C78.7864 130.294 78.1873 129.421 78.2679 127.883L78.7441 118.796L82.491 118.992L82.5643 117.594L78.8174 117.398L79.0123 113.679L77.2965 114.318L77.1397 117.31L74.8468 117.19L74.7736 118.588L77.0664 118.708L76.5814 127.963C76.4598 130.284 77.5947 131.633 79.7198 131.745C81.0619 131.815 82.0419 131.306 82.651 130.384L81.6574 129.547ZM90.551 132.312C94.5215 132.52 97.5569 129.707 97.7826 125.401C98.0083 121.095 95.2835 117.98 91.313 117.772C87.3424 117.564 84.3071 120.377 84.0814 124.683C83.8557 128.989 86.5804 132.104 90.551 132.312ZM90.6242 130.914C87.6324 130.757 85.5759 128.266 85.7591 124.771C85.9423 121.276 88.2478 119.014 91.2397 119.17C94.2316 119.327 96.2881 121.818 96.1049 125.313C95.9217 128.809 93.6161 131.071 90.6242 130.914ZM117.208 119.129C114.943 119.011 113.121 120.065 112.005 122.109C111.445 119.949 109.826 118.743 107.561 118.624C105.38 118.51 103.702 119.487 102.676 121.424L102.821 118.656L101.143 118.568L100.41 132.549L102.088 132.637L102.394 126.793C102.626 122.375 104.524 119.867 107.348 120.015C109.557 120.13 110.677 121.759 110.544 124.304L110.085 133.056L111.763 133.144L112.069 127.3C112.301 122.882 114.198 120.374 117.023 120.522C119.204 120.636 120.352 122.266 120.218 124.811L119.76 133.563L121.437 133.651L121.902 124.787C122.078 121.431 120.255 119.289 117.208 119.129ZM131.711 119.889C127.768 119.683 124.816 122.5 124.591 126.806C124.355 131.308 127.286 134.238 131.06 134.435C133.829 134.58 135.921 133.176 137.095 131.107L135.872 130.37C134.942 132.059 133.287 133.15 131.218 133.042C128.533 132.901 126.171 130.899 126.255 127.146L137.412 127.731C137.782 123.348 135.821 120.105 131.711 119.889ZM131.581 121.285C134.266 121.425 135.841 123.471 135.863 126.248L126.384 125.751C126.753 122.994 128.925 121.145 131.581 121.285ZM146.13 120.701C144.537 120.618 143.209 121.333 142.353 123.223L142.484 120.734L140.806 120.646L140.073 134.627L141.751 134.715L142.053 128.955C142.319 123.866 143.729 122.117 145.882 122.23C146.385 122.257 146.827 122.392 147.127 122.548L147.788 121.181C147.408 120.936 146.801 120.736 146.13 120.701ZM37.9129 151.88C36.9441 150.035 35.2102 148.879 32.9453 148.76C29.0307 148.555 26.3029 151.384 26.0772 155.69C25.8516 159.996 28.2687 163.095 32.1833 163.3C34.4482 163.419 36.2935 162.45 37.4498 160.716L37.315 163.289L38.9927 163.377L40.0184 143.803L38.3407 143.715L37.9129 151.88ZM32.4244 161.911C29.4045 161.753 27.5718 159.273 27.7549 155.778C27.9381 152.283 30.02 150.009 33.0398 150.167C36.0877 150.327 37.8645 152.803 37.6813 156.298C37.4981 159.793 35.4722 162.071 32.4244 161.911ZM48.5962 149.58C45.5484 149.421 43.2147 151.149 42.5369 153.917L43.969 154.413C44.6748 152.179 46.1109 150.992 48.4597 151.115C50.8364 151.24 52.3231 152.832 52.2457 155.379L48.2076 155.925C44.3947 156.454 42.9219 157.807 42.8076 159.988C42.6801 162.42 44.3949 163.94 46.8835 164.07C49.1484 164.189 50.9171 163.076 51.9733 161.113L51.8194 164.049L53.4132 164.132L53.8704 155.408C54.0463 152.053 51.8957 149.753 48.5962 149.58ZM47.179 162.712C45.5572 162.627 44.4003 161.697 44.4838 160.103C44.5688 158.482 45.7872 157.704 48.8923 157.306L52.1666 156.889L52.1475 157.253C51.9688 160.664 49.8633 162.853 47.179 162.712ZM62.7635 162.604C62.3148 163.141 61.766 163.449 61.011 163.409C59.8925 163.35 59.2934 162.478 59.374 160.94L59.8502 151.852L63.5971 152.049L63.6704 150.651L59.9235 150.454L60.1184 146.735L58.4026 147.374L58.2458 150.366L55.9529 150.246L55.8797 151.644L58.1725 151.764L57.6875 161.02C57.5658 163.341 58.7008 164.69 60.8259 164.801C62.168 164.872 63.148 164.362 63.7571 163.441L62.7635 162.604ZM71.3565 150.773C68.3087 150.613 65.9751 152.342 65.2973 155.11L66.7293 155.606C67.4352 153.371 68.8712 152.185 71.22 152.308C73.5968 152.433 75.0835 154.025 75.006 156.572L70.968 157.117C67.155 157.647 65.6822 158.999 65.5679 161.18C65.4404 163.613 67.1552 165.133 69.6438 165.263C71.9087 165.382 73.6774 164.269 74.7336 162.306L74.5797 165.242L76.1735 165.325L76.6308 156.601C76.8066 153.246 74.656 150.946 71.3565 150.773ZM69.9393 163.905C68.3176 163.82 67.1606 162.89 67.2442 161.296C67.3292 159.675 68.5475 158.897 71.6526 158.499L74.9269 158.082L74.9079 158.445C74.7291 161.857 72.6236 164.046 69.9393 163.905ZM90.8128 151.793C87.765 151.633 85.4313 153.361 84.7535 156.13L86.1856 156.625C86.8914 154.391 88.3275 153.205 90.6763 153.328C93.053 153.452 94.5397 155.044 94.4623 157.592L90.4242 158.137C86.6113 158.666 85.1385 160.019 85.0242 162.2C84.8967 164.633 86.6115 166.153 89.1001 166.283C91.365 166.402 93.1337 165.289 94.1899 163.325L94.036 166.261L95.6298 166.345L96.087 157.621C96.2629 154.265 94.1123 151.966 90.8128 151.793ZM89.3956 164.925C87.7738 164.84 86.6169 163.91 86.7004 162.316C86.7854 160.694 88.0038 159.917 91.1089 159.519L94.3832 159.102L94.3641 159.465C94.1854 162.876 92.0799 165.065 89.3956 164.925ZM104.98 164.816C104.531 165.353 103.983 165.661 103.228 165.621C102.109 165.563 101.51 164.69 101.591 163.152L102.067 154.065L105.814 154.261L105.887 152.863L102.14 152.667L102.335 148.948L100.619 149.587L100.462 152.579L98.1695 152.459L98.0963 153.857L100.389 153.977L99.9041 163.232C99.7824 165.553 100.917 166.902 103.042 167.014C104.385 167.084 105.365 166.575 105.974 165.653L104.98 164.816ZM118.098 165.728L114.039 153.29L112.25 153.197L117.148 167.809L114.775 172.956L116.509 173.047L124.972 153.863L123.239 153.772L118.098 165.728ZM131.937 168.528C135.908 168.736 138.943 165.923 139.169 161.617C139.395 157.311 136.67 154.196 132.699 153.988C128.729 153.78 125.693 156.593 125.468 160.899C125.242 165.205 127.967 168.32 131.937 168.528ZM132.011 167.13C129.019 166.973 126.962 164.482 127.145 160.987C127.329 157.492 129.634 155.229 132.626 155.386C135.618 155.543 137.674 158.034 137.491 161.529C137.308 165.024 135.002 167.287 132.011 167.13ZM151.842 161.132C151.61 165.549 149.629 168.053 146.693 167.899C144.4 167.779 143.14 166.143 143.273 163.598L143.732 154.846L142.054 154.759L141.589 163.622C141.414 166.978 143.32 169.125 146.424 169.287C148.716 169.407 150.482 168.35 151.568 166.36L151.415 169.268L153.093 169.356L153.826 155.376L152.148 155.288L151.842 161.132ZM162.893 155.626C161.299 155.543 159.972 156.258 159.116 158.148L159.246 155.66L157.569 155.572L156.836 169.552L158.514 169.64L158.815 163.88C159.082 158.791 160.492 157.043 162.645 157.155C163.148 157.182 163.589 157.317 163.89 157.473L164.55 156.106C164.17 155.862 163.564 155.662 162.893 155.626ZM27.9513 180.386C28.0173 179.128 28.7294 178.38 29.7919 178.436C30.4071 178.468 30.8383 178.799 31.1755 179.321L32.3585 178.682C31.933 177.707 31.0675 177.101 29.9211 177.041C27.796 176.929 26.3806 178.257 26.2648 180.466L26.1461 182.731L23.8253 182.609L23.7521 184.007L26.0729 184.129L25.4134 196.712L27.0911 196.799L27.7506 184.217L31.1898 184.397L31.2631 182.999L27.8238 182.819L27.9513 180.386ZM35.733 179.869L35.8517 177.604L34.0063 177.507L33.8876 179.772L35.733 179.869ZM34.7406 197.2L35.4733 183.22L33.7956 183.132L33.0629 197.112L34.7406 197.2ZM45.8646 183.484C43.6276 183.367 41.8648 184.368 40.7483 186.412L40.9007 183.504L39.223 183.416L38.4903 197.397L40.168 197.485L40.5036 191.082C40.7219 186.915 42.8274 184.727 45.5676 184.87C47.8325 184.989 49.175 186.657 49.0373 189.286L48.5844 197.926L50.2621 198.014L50.7237 189.206C50.9011 185.823 48.9963 183.648 45.8646 183.484ZM65.5336 187.29C64.5339 185.5 62.7986 184.371 60.5058 184.251C56.703 184.052 53.672 186.781 53.4507 191.003C53.2324 195.169 55.8805 198.14 59.7113 198.341C62.0321 198.462 63.9038 197.523 65.0852 195.847L65.006 197.357C64.817 200.964 62.8528 203.132 59.5534 202.959C56.7292 202.811 54.9865 201.29 54.281 198.701L52.8845 199.133C53.6136 202.339 55.9834 204.202 59.4227 204.382C63.7847 204.611 66.4566 201.779 66.7013 197.109L67.3417 184.89L65.664 184.802L65.5336 187.29ZM59.9243 196.95C56.9324 196.793 54.9584 194.335 55.1313 191.035C55.3043 187.736 57.5245 185.497 60.5164 185.654C63.5083 185.81 65.4823 188.269 65.3094 191.569C65.1365 194.868 62.9162 197.107 59.9243 196.95ZM77.0748 185.119C73.1322 184.913 70.1807 187.73 69.955 192.036C69.7191 196.538 72.6498 199.468 76.4246 199.665C79.1928 199.81 81.2852 198.406 82.4591 196.337L81.236 195.6C80.3063 197.289 78.6509 198.38 76.5818 198.272C73.8974 198.131 71.535 196.129 71.6195 192.376L82.7762 192.961C83.1461 188.578 81.1851 185.335 77.0748 185.119ZM76.9456 186.515C79.6299 186.655 81.205 188.7 81.2277 191.477L71.7487 190.981C72.1175 188.224 74.2892 186.375 76.9456 186.515ZM91.4946 185.931C89.9008 185.848 88.5735 186.563 87.7174 188.453L87.8478 185.964L86.1701 185.876L85.4374 199.857L87.1151 199.945L87.417 194.185C87.6837 189.096 89.0932 187.347 91.2462 187.46C91.7495 187.487 92.191 187.622 92.4913 187.778L93.1518 186.411C92.772 186.166 92.1657 185.966 91.4946 185.931ZM100.415 198.623C99.9667 199.161 99.4179 199.468 98.6629 199.429C97.5445 199.37 96.9453 198.498 97.0259 196.96L97.5022 187.872L101.249 188.069L101.322 186.671L97.5754 186.474L97.7703 182.755L96.0545 183.394L95.8977 186.386L93.6049 186.266L93.5316 187.664L95.8245 187.784L95.3394 197.04C95.2178 199.36 96.3527 200.71 98.4778 200.821C99.82 200.891 100.8 200.382 101.409 199.461L100.415 198.623ZM105.898 183.546L106.017 181.281L104.171 181.184L104.053 183.449L105.898 183.546ZM104.906 200.878L105.638 186.897L103.961 186.809L103.228 200.79L104.906 200.878ZM116.169 187.168C113.905 187.05 112.086 188.048 110.93 189.782L111.066 187.181L109.388 187.093L108.362 206.666L110.04 206.754L110.471 198.534C111.41 200.405 113.143 201.59 115.407 201.708C119.294 201.912 121.994 199.081 122.22 194.775C122.445 190.469 120.056 187.372 116.169 187.168ZM115.313 200.301C112.293 200.143 110.516 197.667 110.699 194.172C110.883 190.676 112.909 188.399 115.928 188.558C118.92 188.714 120.725 191.192 120.542 194.687C120.359 198.183 118.305 200.458 115.313 200.301ZM129.385 202.441C132.684 202.614 134.731 201.011 134.858 198.578C135.006 195.754 133.005 194.892 130.896 194.473L129.009 194.094C127.539 193.792 126.422 193.173 126.504 191.607C126.572 190.293 127.838 189.154 129.935 189.264C131.697 189.356 132.88 190.315 133.334 191.825L134.727 191.449C134.219 189.376 132.495 188.024 130.091 187.898C127.043 187.738 125.021 189.399 124.907 191.58C124.76 194.376 126.591 195.285 128.59 195.67L130.699 196.089C132.197 196.392 133.341 197.04 133.26 198.578C133.179 200.116 131.723 201.161 129.458 201.043C127.249 200.927 125.801 199.673 125.339 197.771L124 198.177C124.512 200.727 126.56 202.293 129.385 202.441ZM139.854 202.709L139.981 200.276L137.577 200.15L137.449 202.583L139.854 202.709Z" fill="#062828"/>
<path d="M23.9537 286.471L27.3091 286.646C27.1715 288.354 25.9028 289.328 24.1612 289.237C21.9722 289.122 20.5262 287.364 20.6501 285C20.7791 282.539 22.3681 280.956 24.4293 281.064C25.9632 281.144 26.9775 281.967 27.4673 283.322L29.1625 282.77C28.4809 280.796 26.8349 279.492 24.534 279.371C21.3863 279.206 18.9136 281.448 18.7319 284.915C18.5485 288.414 20.9247 290.766 23.8167 290.917C25.3826 291 26.5127 290.53 27.2534 289.543L27.1805 290.934L28.7623 291.016L29.068 285.184L24.0349 284.921L23.9537 286.471ZM34.2428 283.02C32.3894 282.923 31.0037 283.988 30.6147 285.602L32.0461 286.11C32.4201 285.088 33.0247 284.559 34.0792 284.614C35.0698 284.666 35.6906 285.355 35.6833 286.412L33.5389 286.668C31.7007 286.893 30.7817 287.613 30.7139 288.908C30.6393 290.33 31.6445 291.328 33.1624 291.407C34.2489 291.464 35.1057 291.012 35.632 290.143L35.5675 291.373L37.2452 291.461L37.5065 286.476C37.6086 284.527 36.3839 283.133 34.2428 283.02ZM33.6457 290.135C32.9746 290.1 32.5153 289.691 32.5488 289.052C32.5848 288.365 33.1297 288.057 34.0656 287.93L35.6155 287.707L35.6012 287.978C35.5342 289.256 34.7162 290.191 33.6457 290.135ZM41.4503 282.196L41.5466 280.359L39.5973 280.257L39.501 282.094L41.4503 282.196ZM40.9067 291.653L41.3279 283.616L39.4904 283.52L39.0692 291.557L40.9067 291.653ZM47.6688 283.724C46.5503 283.665 45.6296 284.114 45.0193 285.059L45.0846 283.813L43.2471 283.717L42.8259 291.753L44.6634 291.85L44.8694 287.919C44.9682 286.034 45.9889 285.206 47.1074 285.265C48.114 285.317 48.6843 286.052 48.6249 287.187L48.3703 292.044L50.2078 292.14L50.4749 287.043C50.5771 285.094 49.4424 283.817 47.6688 283.724ZM54.896 292.546C56.7494 292.643 58.1258 291.754 58.2138 290.077C58.3009 288.415 57.0637 287.869 55.8905 287.632L54.7645 287.412C54.0673 287.264 53.7485 286.927 53.7745 286.431C53.8021 285.904 54.3225 285.451 55.1854 285.496C56.0002 285.538 56.5503 286.048 56.754 286.748L58.1684 286.357C57.883 285.076 56.7753 284.201 55.2733 284.122C53.6276 284.036 52.1881 284.906 52.1035 286.52C52.0231 288.054 53.0122 288.746 54.1703 288.967L55.3434 289.205C56.0885 289.356 56.5217 289.651 56.4924 290.211C56.4589 290.85 55.8325 291.185 54.9537 291.139C53.8831 291.083 53.2414 290.489 53.015 289.612L51.6174 289.987C51.9053 291.524 53.1703 292.456 54.896 292.546ZM61.9734 283.272L62.0697 281.434L60.1204 281.332L60.0241 283.17L61.9734 283.272ZM61.4298 292.728L61.851 284.692L60.0135 284.595L59.5923 292.632L61.4298 292.728ZM69.5847 286.042C69.0481 285.277 68.2398 284.802 67.2012 284.748C64.9963 284.632 63.2584 286.303 63.137 288.62C63.0156 290.937 64.586 292.766 66.759 292.88C67.8296 292.936 68.6822 292.564 69.2799 291.858L69.2523 292.385C69.1661 294.031 68.2883 294.882 66.8023 294.805C65.5081 294.737 64.7091 294.086 64.3514 292.962L62.853 293.428C63.2764 295.132 64.6911 296.264 66.6883 296.369C69.2768 296.504 70.9617 294.926 71.1007 292.274L71.4716 285.196L69.6342 285.099L69.5847 286.042ZM67.0808 291.326C65.7865 291.258 64.9302 290.172 65.0064 288.718C65.0835 287.248 66.0486 286.257 67.3429 286.325C68.6371 286.393 69.4934 287.479 69.4164 288.949C69.3402 290.403 68.375 291.394 67.0808 291.326ZM77.8954 285.308C76.777 285.249 75.8394 285.713 75.2115 286.689L75.4442 282.248L73.6068 282.151L73.0206 293.336L74.8581 293.432L75.0641 289.502C75.1629 287.616 76.1836 286.788 77.3021 286.847C78.3087 286.9 78.879 287.635 78.8196 288.769L78.565 293.626L80.4025 293.723L80.6696 288.626C80.7667 286.772 79.7329 285.404 77.8954 285.308ZM86.2429 292.299C86.0083 292.494 85.7292 292.624 85.3776 292.606C84.8663 292.579 84.598 292.196 84.6323 291.541L84.8459 287.467L86.955 287.577L87.037 286.011L84.9279 285.901L85.0636 283.312L83.1842 284.015L83.0904 285.805L81.8122 285.738L81.7301 287.303L83.0084 287.37L82.7848 291.637C82.7052 293.155 83.4757 294.044 84.9457 294.121C85.9364 294.173 86.6578 293.858 87.1488 293.355L86.2429 292.299Z" fill="#062828"/>
<defs>
<clipPath id="clip0_1137_27338">
<rect width="21.61" height="23.89" fill="white" transform="translate(44.4463 29.4802) rotate(3)"/>
</clipPath>
</defs>
</svg>
